<?xml version="1.0" encoding="utf-8"?>
<!-- Generator: Adobe Illustrator 19.2.0, SVG Export Plug-In . SVG Version: 6.00 Build 0)  -->
<svg version="1.1" id="图层_1" xmlns="http://www.w3.org/2000/svg" xmlns:xlink="http://www.w3.org/1999/xlink" x="0px" y="0px"
	 viewBox="0 0 20 20" style="enable-background:new 0 0 20 20;" xml:space="preserve">
<style type="text/css">
	.st0{fill:#050000;}
</style>
<path class="st0" d="M10.1,6C9.4,6,8.2,5.1,7,5.1c-1.6,0-3.1,0.9-3.9,2.4c-1.7,2.9-0.4,7.2,1.2,9.6c0.8,1.2,1.7,2.4,3,2.4
	c1.2-0.1,1.7-0.8,3.1-0.8c1.4,0,1.9,0.8,3.1,0.8c1.3,0,2.1-1.2,2.9-2.3c0.9-1.3,1.3-2.6,1.3-2.7c0,0-2.5-1-2.5-3.8
	c0-2.4,2-3.6,2.1-3.6c-1.1-1.7-2.9-1.8-3.5-1.9C12.2,5,10.9,6,10.1,6z M12.8,3.5c0.7-0.8,1.1-1.9,1-3c-1,0-2.1,0.6-2.8,1.4
	c-0.6,0.7-1.2,1.9-1,2.9C11,5,12.1,4.3,12.8,3.5"/>
</svg>
