<?xml version="1.0" encoding="utf-8"?>
<!-- Generator: Adobe Illustrator 19.2.0, SVG Export Plug-In . SVG Version: 6.00 Build 0)  -->
<svg version="1.1" id="图层_1" xmlns="http://www.w3.org/2000/svg" xmlns:xlink="http://www.w3.org/1999/xlink" x="0px" y="0px"
	 viewBox="0 0 26 26" style="enable-background:new 0 0 26 26;" xml:space="preserve">
<style type="text/css">
	.st0{fill-rule:evenodd;clip-rule:evenodd;}
</style>
<path d="M13,1c6.6,0,12,5.4,12,12s-5.4,12-12,12C6.4,25,1,19.6,1,13S6.4,1,13,1 M13,0C5.8,0,0,5.8,0,13c0,7.2,5.8,13,13,13
	c7.2,0,13-5.8,13-13C26,5.8,20.2,0,13,0L13,0z"/>
<path class="st0" d="M13,20.5c-0.6,0-1-0.4-1-1v-9c0-0.6,0.4-1,1-1s1,0.4,1,1v9C14,20.1,13.6,20.5,13,20.5z M13,7.5
	c-0.6,0-1-0.4-1-1c0-0.6,0.4-1,1-1s1,0.4,1,1C14,7.1,13.6,7.5,13,7.5z"/>
</svg>
