<?xml version="1.0" encoding="utf-8"?>
<!-- Generator: Adobe Illustrator 19.2.0, SVG Export Plug-In . SVG Version: 6.00 Build 0)  -->
<svg version="1.1" id="图层_1" xmlns="http://www.w3.org/2000/svg" xmlns:xlink="http://www.w3.org/1999/xlink" x="0px" y="0px"
	 viewBox="0 0 20 20" style="enable-background:new 0 0 20 20;" xml:space="preserve">
<path d="M17.9,13.7L12.2,2.1c-0.7-0.8-1.3-1.1-2-1.1c-0.7,0-1.3,0.4-2,1.1L1.9,13.7c-1.3,2-1.3,5.3,1.2,5.3c2.5,0,10.3,0,13.6,0
	C20.1,19,19.1,15.7,17.9,13.7z M17.9,17.6c-0.2,0.3-0.7,0.4-1.2,0.4H3.1c-0.5,0-0.7-0.2-0.9-0.5c-0.4-0.8-0.2-2.3,0.5-3.3l0,0l0,0
	L9,2.7C9.3,2.4,9.8,2,10.2,2c0.4,0,0.8,0.4,1.2,0.7L17,14.1C17.9,15.6,18.2,17,17.9,17.6z"/>
</svg>
